<svg version="1.2" baseProfile="tiny-ps" xmlns="http://www.w3.org/2000/svg" viewBox="0 0 32 36" width="32" height="36">
	<title>Categoria</title>
	<style>
		tspan { white-space:pre }
		.shp0 { fill: #000000 } 
	</style>
	<g id="Categoria">
		<path id="bag" class="shp0" d="M29.33 9.85L25.48 9.85L25.48 9.61C25.48 4.32 21.35 0.01 16.27 0.01C11.19 0.01 7.07 4.32 7.07 9.61L7.07 9.85L3.22 9.85L0.97 36L31.58 36L29.33 9.85ZM16.27 1.19C19.63 1.19 22.51 3.34 23.73 6.38C22.12 3.87 19.38 2.21 16.27 2.21C13.16 2.21 10.42 3.87 8.81 6.39C10.03 3.34 12.92 1.19 16.27 1.19ZM8.77 9.85C9.52 6.25 12.6 3.54 16.27 3.54C19.95 3.54 23.03 6.25 23.78 9.85L8.77 9.85Z" />
	</g>
</svg>